HIERARCHY
ROOT Hips
{
	OFFSET -0.001795 -0.223333 0.028219
	CHANNELS 6 Xposition Yposition Zposition Zrotation Yrotation Xrotation 
	JOINT LeftUpLeg
	{
		OFFSET 0.069520 -0.091406 -0.006815
		CHANNELS 3 Zrotation Yrotation Xrotation
		JOINT LeftLeg
		{
			OFFSET 0.034277 -0.375199 -0.004496
			CHANNELS 3 Zrotation Yrotation Xrotation
			JOINT LeftFoot
			{
				OFFSET -0.013596 -0.397961 -0.043693
				CHANNELS 3 Zrotation Yrotation Xrotation
				JOINT LeftToe
				{
					OFFSET 0.026358 -0.055791 0.119288
					CHANNELS 3 Zrotation Yrotation Xrotation
					End Site
					{
						OFFSET 0.000000 0.000000 0.000000
					}
				}
			}
		}
	}
	JOINT RightUpLeg
	{
		OFFSET -0.067670 -0.090522 -0.004320
		CHANNELS 3 Zrotation Yrotation Xrotation
		JOINT RightLeg
		{
			OFFSET -0.038290 -0.382569 -0.008850
			CHANNELS 3 Zrotation Yrotation Xrotation
			JOINT RightFoot
			{
				OFFSET 0.015774 -0.398415 -0.042312
				CHANNELS 3 Zrotation Yrotation Xrotation
				JOINT RightToe
				{
					OFFSET -0.025372 -0.048144 0.123348
					CHANNELS 3 Zrotation Yrotation Xrotation
					End Site
					{
						OFFSET 0.000000 0.000000 0.000000
					}
				}
			}
		}
	}
	JOINT Spine
	{
		OFFSET -0.002533 0.108963 -0.026696
		CHANNELS 3 Zrotation Yrotation Xrotation
		JOINT Spine1
		{
			OFFSET 0.005487 0.135180 0.001092
			CHANNELS 3 Zrotation Yrotation Xrotation
			JOINT Spine2
			{
				OFFSET 0.001457 0.052922 0.025425
				CHANNELS 3 Zrotation Yrotation Xrotation
				JOINT Neck
				{
					OFFSET -0.002778 0.213870 -0.042857
					CHANNELS 3 Zrotation Yrotation Xrotation
					JOINT Head
					{
						OFFSET 0.005152 0.064970 0.051349
						CHANNELS 3 Zrotation Yrotation Xrotation
						End Site
						{
							OFFSET 0.000000 0.000000 0.000000
						}
					}
				}
				JOINT LeftShoulder
				{
					OFFSET 0.078845 0.121749 -0.034090
					CHANNELS 3 Zrotation Yrotation Xrotation
					JOINT LeftArm
					{
						OFFSET 0.090977 0.030469 -0.008868
						CHANNELS 3 Zrotation Yrotation Xrotation
						JOINT LeftForeArm
						{
							OFFSET 0.259612 -0.012772 -0.027456
							CHANNELS 3 Zrotation Yrotation Xrotation
							JOINT LeftHand
							{
								OFFSET 0.249234 0.008986 -0.001171
								CHANNELS 3 Zrotation Yrotation Xrotation
								End Site
								{
									OFFSET 0.000000 0.000000 0.000000
								}
							}
						}
					}
				}
				JOINT RightShoulder
				{
					OFFSET -0.081759 0.118833 -0.038615
					CHANNELS 3 Zrotation Yrotation Xrotation
					JOINT RightArm
					{
						OFFSET -0.096012 0.032551 -0.009143
						CHANNELS 3 Zrotation Yrotation Xrotation
						JOINT RightForeArm
						{
							OFFSET -0.253742 -0.013329 -0.021401
							CHANNELS 3 Zrotation Yrotation Xrotation
							JOINT RightHand
							{
								OFFSET -0.255298 0.007772 -0.005559
								CHANNELS 3 Zrotation Yrotation Xrotation
								End Site
								{
									OFFSET 0.000000 0.000000 0.000000
								}
							}
						}
					}
				}
			}
		}
	}
}
MOTION
Frames: 13
Frame Time: 0.05000000
0.000000 0.789571 0.000000 0.520769 6.009563 44.014426 -1.600560 -4.516526 -50.945550 -13.464673 8.421191 85.793603 8.210705 20.714375 -21.623134 0.000000 0.000000 0.000000 -10.668288 -3.320990 -99.335224 21.293680 -14.578622 58.299433 -9.714447 -30.236293 -5.343013 0.000000 0.000000 0.000000 7.330001 1.559817 -33.416809 -0.292761 0.427591 -13.053420 -7.876660 -8.531106 44.382209 -3.712862 2.261595 -16.615682 0.000000 0.000000 0.000000 13.669677 7.492102 -2.657396 -62.464125 -5.550611 -2.786836 67.928062 -80.981963 -46.457559 0.000000 0.000000 0.000000 -10.858022 -13.091486 -2.062039 69.379638 -19.763433 -22.598650 51.872125 33.500716 17.498036 0.000000 0.000000 0.000000 
0.435006 0.771971 2.803929 2.822723 -2.073729 41.873903 -3.171952 -6.198255 -64.624270 -14.060054 13.243708 95.480360 12.029314 28.979321 -16.571479 0.000000 0.000000 0.000000 -12.625735 -1.798091 -95.984444 23.248062 -17.031493 63.869429 -9.119058 -27.682236 -6.631774 0.000000 0.000000 0.000000 1.262076 1.346550 -29.761097 1.630862 -0.189808 -11.445300 -6.501472 -7.365850 43.697553 -3.195170 2.001087 -16.221509 0.000000 0.000000 0.000000 8.659304 6.411120 -2.333123 -64.926396 -1.047573 -6.065201 18.215985 -75.140356 -3.670803 0.000000 0.000000 0.000000 -9.805999 -7.805451 -1.055612 75.051664 -14.781408 -21.712165 47.005101 41.654225 20.251785 0.000000 0.000000 0.000000 
0.725137 0.743330 5.469555 2.695220 -6.460277 38.358209 4.315826 -2.538541 -82.366374 -17.400411 22.693963 99.114038 12.969095 26.579692 -12.742360 0.000000 0.000000 0.000000 -16.181438 -2.439427 -87.926648 25.169253 -21.227620 71.070717 -10.180633 -28.553138 -3.750558 0.000000 0.000000 0.000000 -1.111351 1.127462 -22.378008 2.417050 -0.518288 -9.258518 -3.040344 -4.811645 42.250576 -1.150902 0.834221 -11.257687 0.000000 0.000000 0.000000 1.745875 3.440383 -1.233609 -59.287987 -1.632959 -6.876781 3.489601 -71.693640 5.775344 0.000000 0.000000 0.000000 -5.776882 -2.114289 -0.275291 76.252559 -3.212783 -13.632168 22.066765 47.167020 11.745692 0.000000 0.000000 0.000000 
0.889616 0.718290 8.024633 3.149316 -15.520879 38.795616 9.373268 6.233833 -97.050389 -17.970630 22.751461 89.354035 11.901581 25.829192 -18.051620 0.000000 0.000000 0.000000 -23.726250 -4.518541 -83.041439 27.905580 -25.719330 76.100327 -8.304511 -23.395262 -10.812336 0.000000 0.000000 0.000000 -5.191700 1.469063 -18.291616 2.382140 -0.526857 -8.742362 -1.608399 0.384182 42.566103 0.111693 0.210504 -9.171415 0.000000 0.000000 0.000000 -1.006247 -1.667780 0.665221 -56.527398 -7.305372 -4.835752 37.530536 -68.454412 -18.603594 0.000000 0.000000 0.000000 -0.207835 5.351198 2.026491 73.234335 13.471135 -1.636928 3.201503 47.624674 4.194339 0.000000 0.000000 0.000000 
0.936263 0.696187 10.633165 2.590465 -24.270328 38.275457 10.011824 15.140873 -107.930536 -15.892264 15.390423 74.263149 8.678376 18.705439 -4.905253 0.000000 0.000000 0.000000 -28.470351 -3.353364 -73.469422 31.785675 -26.527679 73.852337 -7.366484 -24.939291 -20.507857 0.000000 0.000000 0.000000 -7.071448 1.743289 -15.458822 1.299311 -0.273571 -6.926995 0.557002 4.314205 41.544410 -0.346998 0.577428 -6.073464 0.000000 0.000000 0.000000 -4.597727 -6.239582 2.615570 -53.646987 -11.639410 -3.247315 50.183082 -66.712287 -26.695968 0.000000 0.000000 0.000000 4.554739 11.109156 4.627409 65.837773 28.927284 6.994227 -9.029811 46.716139 -0.662647 0.000000 0.000000 0.000000 
0.825554 0.684722 13.438920 2.405245 -30.479151 42.015283 5.462686 15.331124 -115.312215 -8.817092 5.333861 62.639845 1.705857 6.339405 7.782666 0.000000 0.000000 0.000000 -31.883373 -0.921222 -58.845912 34.314373 -21.835216 62.837715 -4.593146 -22.011345 -38.172281 0.000000 0.000000 0.000000 -8.177142 1.956348 -18.296178 0.917551 -0.182866 -2.712807 0.918093 5.950282 41.300784 0.806412 -0.512919 -1.770854 0.000000 0.000000 0.000000 -6.482301 -13.711993 6.408786 -48.216246 -20.669246 -0.242333 69.260101 -59.417839 -34.378975 0.000000 0.000000 0.000000 6.715602 19.045779 8.124958 51.001250 38.350827 8.023934 -20.187507 39.229068 -4.570941 0.000000 0.000000 0.000000 
0.581183 0.685993 16.473675 -1.864615 -34.725842 49.991908 -2.504805 7.395448 -122.742359 0.410045 -4.665210 65.360549 -1.900455 -0.032514 8.502066 0.000000 0.000000 0.000000 -30.716223 2.851454 -42.894544 32.225055 -11.346074 43.420087 -5.063354 -22.306476 -40.322961 0.000000 0.000000 0.000000 -4.511272 1.680808 -18.848741 -1.574892 0.903999 1.126094 1.269269 5.296973 38.882741 -0.060346 0.122925 0.767573 0.000000 0.000000 0.000000 -9.261211 -19.927520 10.852443 -33.153021 -26.989207 -0.048547 76.783423 -51.530593 -32.980392 0.000000 0.000000 0.000000 8.199986 27.234058 11.172000 35.861076 40.633906 4.462942 -26.467059 32.700063 -6.081790 0.000000 0.000000 0.000000 
0.148541 0.698148 19.728760 -4.864862 -36.587966 57.053641 -11.063681 -6.712065 -124.951257 7.774063 -18.000233 78.578421 -0.445537 -1.113873 -0.258234 0.000000 0.000000 0.000000 -23.982499 4.953713 -27.401258 16.695074 -1.916843 24.117907 -8.396482 -19.135452 -24.183172 0.000000 0.000000 0.000000 -3.735794 1.911830 -17.060027 0.887971 0.619995 4.949849 -1.005931 1.865786 32.218342 -2.323871 3.213029 14.114301 0.000000 0.000000 0.000000 -17.703922 -26.731754 18.814308 -9.736080 -29.094652 -2.773850 66.226622 -43.406099 -23.615066 0.000000 0.000000 0.000000 9.058025 31.662949 12.658720 22.218537 41.443844 0.717643 -26.100402 26.964206 -5.090732 0.000000 0.000000 0.000000 
-0.554566 0.726372 22.941195 -8.930073 -37.903156 64.955697 -17.559735 -12.219864 -119.065993 10.353213 -24.136305 83.685656 4.168645 7.349438 -5.477863 0.000000 0.000000 0.000000 -21.824024 5.720525 -18.776565 9.441895 -0.270601 16.534093 -2.874316 -8.581867 4.554836 0.000000 0.000000 0.000000 -1.647372 1.529368 -9.517659 0.033435 1.956034 8.093615 -0.834137 -1.461535 23.333563 -3.252075 7.027523 26.388746 0.000000 0.000000 0.000000 -24.894243 -33.493143 28.838467 9.176469 -22.438415 -3.443433 57.752267 -34.228249 -16.932775 0.000000 0.000000 0.000000 14.384588 34.142716 14.219819 11.593381 40.927070 -2.607001 -22.102288 25.033422 -3.609867 0.000000 0.000000 0.000000 
-1.495431 0.769146 26.044277 -14.731659 -37.000206 73.259024 -19.213257 -7.512874 -108.506356 17.834134 -23.508696 71.591799 4.537803 6.328872 -11.026553 0.000000 0.000000 0.000000 -20.252793 5.988567 -16.184867 9.494450 0.033280 24.041090 -2.954711 -10.353169 10.312193 0.000000 0.000000 0.000000 3.529667 -0.510760 8.785112 -9.698527 6.261625 8.433365 6.580434 -2.018442 3.042586 0.433622 3.873581 38.901976 0.000000 0.000000 0.000000 -30.324013 -37.871080 38.074193 20.337350 -14.244652 -1.876012 48.590987 -29.431346 -11.262000 0.000000 0.000000 0.000000 14.536336 33.328136 13.757166 5.866417 42.159360 -3.603415 -19.379796 25.703588 -2.300965 0.000000 0.000000 0.000000 
-2.614061 0.816729 29.157858 -20.886958 -35.094836 84.050757 -16.294797 1.073445 -95.804422 15.285146 -12.727997 59.387658 4.877409 4.801099 -18.445136 0.000000 0.000000 0.000000 -19.511255 6.418464 -16.969980 13.622879 0.184646 38.796231 -5.130233 -15.893541 19.458156 0.000000 0.000000 0.000000 6.500350 -0.804561 26.860798 -21.818491 1.102917 -27.349595 15.535794 -5.720583 26.272409 0.017686 7.892851 35.419781 0.000000 0.000000 0.000000 -31.206379 -39.953824 47.119162 27.094994 -2.359726 1.493392 50.850998 -15.167196 -8.241002 0.000000 0.000000 0.000000 12.709973 33.440196 12.303869 -5.324371 44.441110 -10.734650 -14.688451 25.162028 -0.998951 0.000000 0.000000 0.000000 
-3.855641 0.856233 32.450111 -30.439403 -33.611710 98.343485 -8.795213 10.157319 -80.107649 11.217525 -3.732375 38.812451 4.213616 5.890292 -12.451744 0.000000 0.000000 0.000000 -30.599602 10.648290 -23.296153 29.818611 -6.928105 52.110052 -7.113803 -19.048625 32.163047 0.000000 0.000000 0.000000 8.638966 3.350414 45.560474 -20.120738 -1.580758 -59.940836 3.816737 -11.070002 47.756168 0.593185 11.034585 32.832090 0.000000 0.000000 0.000000 -20.507233 -33.880244 38.658778 26.815138 1.843197 4.125996 57.293327 -6.563993 -6.325651 0.000000 0.000000 0.000000 25.749475 40.610872 16.911330 -21.179262 39.690260 -17.306525 -10.913881 22.741461 0.374412 0.000000 0.000000 0.000000 
-5.006884 0.885996 35.940636 -37.399615 -24.777508 109.909437 6.210286 19.358072 -70.767652 -0.328593 2.119495 27.212750 5.107820 7.390847 8.488391 0.000000 0.000000 0.000000 -49.215368 16.413017 -31.849302 48.370963 -24.992406 54.052612 -8.275798 -19.730865 36.896002 0.000000 0.000000 0.000000 10.867209 9.052661 60.302403 -7.328921 0.757401 -61.187677 -4.879927 -4.146983 35.910634 -4.236339 9.931753 30.471449 0.000000 0.000000 0.000000 -18.695608 -30.686551 35.863936 23.788722 6.908839 5.423100 64.836859 -0.599816 -0.648772 0.000000 0.000000 0.000000 40.447890 42.170048 33.221164 -35.116140 32.865276 -21.583133 -8.273054 24.454053 2.281130 0.000000 0.000000 0.000000 
